<?xml version="1.0" encoding="utf-8"?>
<!-- Generator: Adobe Illustrator 27.5.0, SVG Export Plug-In . SVG Version: 6.00 Build 0)  -->
<svg version="1.1" xmlns="http://www.w3.org/2000/svg" xmlns:xlink="http://www.w3.org/1999/xlink" x="0px" y="0px"
	 viewBox="0 0 800 800" style="enable-background:new 0 0 800 800;" xml:space="preserve">
<g id="Layer_1">
	<g>
		<g>
			<g>
				<linearGradient id="SVGID_1_" gradientUnits="userSpaceOnUse" x1="396.9478" y1="221.3217" x2="389.5207" y2="466.4185">
					<stop  offset="0" style="stop-color:#FFFFFF"/>
					<stop  offset="0.1978" style="stop-color:#4D4D4F"/>
					<stop  offset="0.4939" style="stop-color:#414042"/>
					<stop  offset="1" style="stop-color:#282829"/>
				</linearGradient>
				<path style="fill:url(#SVGID_1_);" d="M418.696,381.811c-4.244,0.903-2.185,0.585-6.053,1.5
					c-23.168,5.485-56.3-1.017-67.301-21.075c-7.463-13.611-7.734-32.501-2.612-46.873c-49.353,51.448-12.632,137.557,58.67,137.557
					c17.864,0,34.384-5.768,47.798-15.536C480.839,414.338,455.143,375.597,418.696,381.811z"/>
				
					<linearGradient id="SVGID_00000022533759588417322210000018015370480613157544_" gradientUnits="userSpaceOnUse" x1="417.2751" y1="221.9375" x2="409.848" y2="467.0344">
					<stop  offset="0" style="stop-color:#FFFFFF"/>
					<stop  offset="0.2247" style="stop-color:#F8991D"/>
					<stop  offset="0.6685" style="stop-color:#F37021"/>
					<stop  offset="1" style="stop-color:#B72025"/>
				</linearGradient>
				<path style="fill:url(#SVGID_00000022533759588417322210000018015370480613157544_);" d="M474.135,345.519
					c-4.316-7.541-10.549-12.809-17.652-18.342c-6.749-5.255-15.154-11.645-18.804-19.619c-0.962-2.095-1.476-4.33-1.563-6.63
					c-0.063-1.647-0.328-5.656,0.627-7.046c-2.994,4.355-7.882,9.682-9.987,14.485c-15.049,34.324,19.078,40.648,10.893,39.738
					c-51.427-5.714-5.253-57.858-2.914-84.165c2.015-22.653-15.755-40.838-23.836-40.838c29.167,48.752-38.973,64.311-37.329,92.952
					c-2.911-24.572,16.096-40.264-10.983-66.929c5.068,4.988,3.408,23.494,2.36,29.699c-1.937,11.461-7.271,21.816-11.992,32.306
					c-9.527,21.168-10.612,46.155,12.502,59.139c12.478,7.007,31.725,7.675,45.332,3.61c30.521-6.879,57.518,11.68,60.609,36.234
					c4.827-9.649,7.711-20.102,8.268-30.868c0.482-9.358,0.515-19.594-2.988-28.434C475.93,348.922,475.079,347.167,474.135,345.519
					z"/>
				<polygon style="fill:#ED1C24;" points="436.747,293.873 436.742,293.882 436.748,293.873 				"/>
			</g>
			<g>
				
					<linearGradient id="SVGID_00000136382446630147568770000013841631195818897823_" gradientUnits="userSpaceOnUse" x1="386.117" y1="492.8951" x2="400.9716" y2="226.3423">
					<stop  offset="0" style="stop-color:#FFFFFF"/>
					<stop  offset="0.1978" style="stop-color:#4D4D4F"/>
					<stop  offset="0.4939" style="stop-color:#414042"/>
					<stop  offset="1" style="stop-color:#282829"/>
				</linearGradient>
				<path style="fill:url(#SVGID_00000136382446630147568770000013841631195818897823_);" d="M418.696,381.811
					c-4.244,0.903-2.185,0.585-6.053,1.5c-23.168,5.485-56.3-1.017-67.301-21.075c-7.463-13.611-7.734-32.501-2.612-46.873
					c-49.353,51.448-12.632,137.557,58.67,137.557c17.864,0,34.384-5.768,47.798-15.536
					C480.839,414.338,455.143,375.597,418.696,381.811z"/>
				
					<linearGradient id="SVGID_00000140010930951939313450000008903942318366274725_" gradientUnits="userSpaceOnUse" x1="405.5389" y1="493.9781" x2="420.3935" y2="227.4247">
					<stop  offset="0" style="stop-color:#FFFFFF"/>
					<stop  offset="0.2247" style="stop-color:#F8991D"/>
					<stop  offset="0.6685" style="stop-color:#F37021"/>
					<stop  offset="1" style="stop-color:#B72025"/>
				</linearGradient>
				<path style="fill:url(#SVGID_00000140010930951939313450000008903942318366274725_);" d="M474.135,345.519
					c-4.316-7.541-10.549-12.809-17.652-18.342c-6.749-5.255-15.154-11.645-18.804-19.619c-0.962-2.095-1.476-4.33-1.563-6.63
					c-0.063-1.647-0.328-5.656,0.627-7.046c-2.994,4.355-7.882,9.682-9.987,14.485c-15.049,34.324,19.078,40.648,10.893,39.738
					c-51.427-5.714-5.253-57.858-2.914-84.165c2.015-22.653-15.755-40.838-23.836-40.838c29.167,48.752-38.973,64.311-37.329,92.952
					c-2.911-24.572,16.096-40.264-10.983-66.929c5.068,4.988,3.408,23.494,2.36,29.699c-1.937,11.461-7.271,21.816-11.992,32.306
					c-9.527,21.168-10.612,46.155,12.502,59.139c12.478,7.007,31.725,7.675,45.332,3.61c30.521-6.879,57.518,11.68,60.609,36.234
					c4.827-9.649,7.711-20.102,8.268-30.868c0.482-9.358,0.515-19.594-2.988-28.434C475.93,348.922,475.079,347.167,474.135,345.519
					z"/>
				<polygon style="fill:#ED1C24;" points="436.747,293.873 436.742,293.882 436.748,293.873 				"/>
			</g>
			<g>
				<g>
					<polygon style="fill:#FFFFFF;" points="436.747,293.873 436.742,293.882 436.748,293.873 					"/>
				</g>
			</g>
		</g>
		<g>
			<text transform="matrix(1 0 0 1 249.4102 530.0068)"><tspan x="0" y="0" style="fill:#F15A29; font-family:'Kenzo'; font-size:76.6948px; letter-spacing:3;">fire</tspan><tspan x="115.118" y="0" style="font-family:'Kenzo'; font-size:76.6948px; letter-spacing:3;"> point</tspan></text>
			<text transform="matrix(1 0 0 1 266.9346 568.8955)" style="font-family:'MyriadPro-Regular'; font-size:32.0118px;">COMPANY SLOGAN</text>
		</g>
	</g>
</g>
<g id="Layer_2" style="display:none;">
</g>
</svg>
