<?xml version="1.0" encoding="utf-8"?>
<!-- Generator: Adobe Illustrator 27.5.0, SVG Export Plug-In . SVG Version: 6.00 Build 0)  -->
<svg version="1.1" xmlns="http://www.w3.org/2000/svg" xmlns:xlink="http://www.w3.org/1999/xlink" x="0px" y="0px"
	 viewBox="0 0 500 500" style="enable-background:new 0 0 500 500;" xml:space="preserve">
<g id="BACKGROUND">
	<g>
		<rect style="fill:#00001A;" width="500" height="500"/>
	</g>
</g>
<g id="OBJECTS">
	<g>
		<g>
			<path style="fill:#000029;" d="M250,86.483l141.609,81.758v163.516L250,413.517l-141.61-81.759V168.242L250,86.483 M250,84.174
				l-143.61,82.913v165.826L250,415.826l143.609-82.914V167.087L250,84.174L250,84.174z"/>
		</g>
		<g>
			<polygon style="fill:#000029;" points="383.15,326.874 383.15,173.126 250,96.251 116.85,173.126 116.85,326.874 250,403.749 			
				"/>
		</g>
	</g>
	<g>
		
			<text transform="matrix(1 0 0 1 122.1807 291.9287)" style="fill:#01C4FF; font-family:'Montserrat-Medium'; font-size:27.315px; letter-spacing:27;">STRONG</text>
		
			<text transform="matrix(1 0 0 1 122.1807 355.1348)" style="fill:#FFFFFF; font-family:'RussoOne-Regular'; font-size:74.2459px; letter-spacing:22;">DATA</text>
		<g>
			
				<line style="fill:none;stroke:#01C4FF;stroke-width:3;stroke-linejoin:round;stroke-miterlimit:10;" x1="250" y1="137.139" x2="250" y2="185.909"/>
			
				<circle style="fill:none;stroke:#01C4FF;stroke-width:3;stroke-linejoin:round;stroke-miterlimit:10;" cx="250" cy="130.645" r="6.494"/>
			
				<circle style="fill:none;stroke:#01C4FF;stroke-width:3;stroke-linejoin:round;stroke-miterlimit:10;" cx="129.723" cy="136.922" r="6.494"/>
			<path style="fill:none;stroke:#01C4FF;stroke-width:3;stroke-linejoin:round;stroke-miterlimit:10;" d="M109.463,192.313
				c0,3.587-2.908,6.494-6.494,6.494c-3.587,0-6.494-2.908-6.494-6.494c0-3.587,2.908-6.494,6.494-6.494
				C106.555,185.819,109.463,188.727,109.463,192.313z"/>
			<path style="fill:none;stroke:#01C4FF;stroke-width:3;stroke-linejoin:round;stroke-miterlimit:10;" d="M366.852,137.019
				c0,3.587-2.908,6.494-6.494,6.494c-3.587,0-6.494-2.908-6.494-6.494c0-3.587,2.908-6.494,6.494-6.494
				C363.944,130.525,366.852,133.433,366.852,137.019z"/>
			<path style="fill:none;stroke:#01C4FF;stroke-width:3;stroke-linejoin:round;stroke-miterlimit:10;" d="M410.066,181.308
				c0,3.587-2.908,6.494-6.494,6.494c-3.587,0-6.494-2.908-6.494-6.494c0-3.587,2.908-6.494,6.494-6.494
				C407.158,174.814,410.066,177.721,410.066,181.308z"/>
			<polyline style="fill:none;stroke:#01C4FF;stroke-width:3;stroke-linejoin:round;stroke-miterlimit:10;" points="
				160.897,185.909 160.897,167.559 134.524,141.186 			"/>
			<polyline style="fill:none;stroke:#01C4FF;stroke-width:3;stroke-linejoin:round;stroke-miterlimit:10;" points="338.44,185.909 
				338.44,159.06 355.918,141.582 			"/>
			
				<polyline style="fill:none;stroke:#01C4FF;stroke-width:3;stroke-linecap:round;stroke-linejoin:round;stroke-miterlimit:10;" points="
				360.477,206.344 379.16,206.344 399.099,186.405 			"/>
			
				<polyline style="fill:none;stroke:#01C4FF;stroke-width:3;stroke-linecap:round;stroke-linejoin:round;stroke-miterlimit:10;" points="
				139.558,208.587 118.447,208.587 107.682,197.822 			"/>
			<g>
				<path style="fill:none;stroke:#FFFFFF;stroke-width:2;stroke-linecap:round;stroke-linejoin:round;stroke-miterlimit:10;" d="
					M147.846,230.759v-32.196c0-2.391,1.939-4.329,4.341-4.329h30.614"/>
				<path style="fill:none;stroke:#FFFFFF;stroke-width:2;stroke-linecap:round;stroke-linejoin:round;stroke-miterlimit:10;" d="
					M317.198,194.234h30.614c2.403,0,4.341,1.939,4.341,4.329v32.196"/>
			</g>
			<path style="fill:none;stroke:#FFFFFF;stroke-width:3;stroke-linejoin:round;stroke-miterlimit:10;" d="M360.477,256.921v-59.776
				c0-6.206-5.031-11.237-11.237-11.237H150.76c-6.206,0-11.237,5.031-11.237,11.237v59.776"/>
			
				<line style="fill:none;stroke:#FFFFFF;stroke-width:3;stroke-linecap:round;stroke-linejoin:round;stroke-miterlimit:10;" x1="180.625" y1="185.909" x2="180.625" y2="143.416"/>
			
				<line style="fill:none;stroke:#FFFFFF;stroke-width:3;stroke-linecap:round;stroke-linejoin:round;stroke-miterlimit:10;" x1="204.949" y1="185.909" x2="204.949" y2="161.708"/>
			
				<line style="fill:none;stroke:#FFFFFF;stroke-width:3;stroke-linecap:round;stroke-linejoin:round;stroke-miterlimit:10;" x1="229.272" y1="185.909" x2="229.272" y2="152.309"/>
			
				<line style="fill:none;stroke:#FFFFFF;stroke-width:3;stroke-linecap:round;stroke-linejoin:round;stroke-miterlimit:10;" x1="269.897" y1="185.909" x2="269.897" y2="163.718"/>
			
				<line style="fill:none;stroke:#FFFFFF;stroke-width:3;stroke-linecap:round;stroke-linejoin:round;stroke-miterlimit:10;" x1="294.22" y1="185.909" x2="294.22" y2="130.645"/>
			
				<line style="fill:none;stroke:#FFFFFF;stroke-width:3;stroke-linecap:round;stroke-linejoin:round;stroke-miterlimit:10;" x1="318.544" y1="185.909" x2="318.544" y2="155.192"/>
			
				<line style="fill:none;stroke:#FFFFFF;stroke-width:3;stroke-linecap:round;stroke-linejoin:round;stroke-miterlimit:10;" x1="360.477" y1="229.523" x2="387.056" y2="229.523"/>
			
				<line style="fill:none;stroke:#FFFFFF;stroke-width:3;stroke-linecap:round;stroke-linejoin:round;stroke-miterlimit:10;" x1="360.477" y1="249.48" x2="413.635" y2="249.48"/>
			
				<line style="fill:none;stroke:#FFFFFF;stroke-width:3;stroke-linecap:round;stroke-linejoin:round;stroke-miterlimit:10;" x1="86.365" y1="249.48" x2="139.523" y2="249.48"/>
			
				<line style="fill:none;stroke:#FFFFFF;stroke-width:3;stroke-linecap:round;stroke-linejoin:round;stroke-miterlimit:10;" x1="139.523" y1="230.759" x2="118.219" y2="230.759"/>
			<path style="fill:#01C4FF;" d="M304.104,218.206H195.896c-3.383,0-6.126,2.743-6.126,6.126v32.589H310.23v-32.589
				C310.23,220.949,307.488,218.206,304.104,218.206z"/>
			<path style="fill:none;stroke:#00001A;stroke-width:2;stroke-linecap:round;stroke-linejoin:round;stroke-miterlimit:10;" d="
				M288.689,259.698v-22.022c0-2.286-1.762-4.14-3.935-4.14h-69.508c-2.173,0-3.935,1.854-3.935,4.14v22.022"/>
			<g>
				<rect x="196.649" y="202.29" style="fill:#FFFFFF;" width="10.652" height="6.298"/>
				<rect x="213.16" y="202.29" style="fill:#FFFFFF;" width="5.326" height="6.298"/>
				<rect x="239.09" y="202.29" style="fill:#FFFFFF;" width="2.663" height="6.298"/>
				<rect x="245.275" y="202.29" style="fill:#FFFFFF;" width="2.663" height="6.298"/>
				<rect x="224.063" y="202.29" style="fill:#FFFFFF;" width="9.214" height="6.298"/>
				<rect x="252.062" y="202.29" style="fill:#FFFFFF;" width="10.652" height="6.298"/>
				<rect x="268.573" y="202.29" style="fill:#FFFFFF;" width="5.326" height="6.298"/>
				<rect x="294.503" y="202.29" style="fill:#FFFFFF;" width="2.663" height="6.298"/>
				<rect x="300.688" y="202.29" style="fill:#FFFFFF;" width="2.663" height="6.298"/>
				<rect x="279.475" y="202.29" style="fill:#FFFFFF;" width="9.214" height="6.298"/>
			</g>
		</g>
	</g>
</g>
</svg>
